<?xml version="1.0" encoding="UTF-8"?>
<svg xmlns="http://www.w3.org/2000/svg" viewBox="0 0 800 800" preserveAspectRatio="xMidYMid slice">
  <defs>
    <radialGradient id="bg" cx="50%" cy="40%" r="80%">
      <stop offset="0%" stop-color="#3b0764"/>
      <stop offset="100%" stop-color="#1e0438"/>
    </radialGradient>
    <radialGradient id="spot" cx="50%" cy="35%" r="30%">
      <stop offset="0%" stop-color="rgba(255,255,255,0.18)"/>
      <stop offset="100%" stop-color="rgba(255,255,255,0)"/>
    </radialGradient>
    <linearGradient id="glassGradient" x1="0" y1="0" x2="1" y2="1">
      <stop offset="0%" stop-color="rgba(255,255,255,0.18)"/>
      <stop offset="100%" stop-color="rgba(255,255,255,0)"/>
    </linearGradient>
    <filter id="softShadow" x="-20%" y="-20%" width="140%" height="140%">
      <feGaussianBlur in="SourceAlpha" stdDeviation="6"/>
      <feOffset dx="0" dy="8"/>
      <feComponentTransfer><feFuncA type="linear" slope="0.5"/></feComponentTransfer>
      <feMerge>
        <feMergeNode/>
        <feMergeNode in="SourceGraphic"/>
      </feMerge>
    </filter>
  </defs>

  <!-- Background -->
  <rect width="800" height="800" fill="url(#bg)"/>
  <rect width="800" height="800" fill="url(#spot)"/>

  <!-- Floor shadow under product -->
  <ellipse cx="400" cy="680" rx="160" ry="20" fill="rgba(0,0,0,0.5)" opacity="0.6"/>

  <!-- Product silhouette -->
  <g filter="url(#softShadow)">
    
    <!-- Cap (metal) -->
    <rect x="340" y="180" width="120" height="60" rx="6" fill="#3a3a40" stroke="#4a4a52" stroke-width="2"/>
    <rect x="350" y="190" width="100" height="20" rx="3" fill="#5a5a62"/>
    <!-- Neck -->
    <rect x="370" y="240" width="60" height="30" fill="#1a1a22"/>
    <!-- Bottle body (glass) -->
    <path d="M 300 270 L 500 270 L 510 580 Q 510 620 470 620 L 330 620 Q 290 620 290 580 Z"
          fill="rgba(255,255,255,0.06)" stroke="rgba(255,255,255,0.25)" stroke-width="2"/>
    <!-- Liquid -->
    <path d="M 305 380 L 495 380 L 505 575 Q 505 610 470 610 L 330 610 Q 295 610 295 575 Z"
          fill="#7c2d92" opacity="0.85"/>
    <!-- Light reflection on bottle -->
    <ellipse cx="340" cy="430" rx="15" ry="80" fill="rgba(255,255,255,0.3)"/>
    <!-- Label -->
    <rect x="340" y="450" width="120" height="80" rx="4" fill="rgba(255,255,255,0.92)" stroke="rgba(0,0,0,0.1)"/>
    <line x1="360" y1="475" x2="440" y2="475" stroke="#0a0a12" stroke-width="2"/>
    <line x1="365" y1="495" x2="435" y2="495" stroke="rgba(10,10,18,0.5)" stroke-width="1"/>
    <line x1="370" y1="510" x2="430" y2="510" stroke="rgba(10,10,18,0.3)" stroke-width="1"/>
  
  </g>

  <!-- Bottom brand mark -->
  <text x="400" y="755" font-family="-apple-system, Inter, sans-serif" font-size="11" text-anchor="middle" fill="rgba(255,255,255,0.4)" font-weight="700" letter-spacing="4">CARMAT</text>
</svg>