<?xml version="1.0" encoding="UTF-8"?>
<svg id="Layer_1" data-name="Layer 1" xmlns="http://www.w3.org/2000/svg" width="176.39mm" height="176.39mm" viewBox="0 0 500 500">
  <rect width="500" height="500" fill="none"/>
  <g>
    <g>
      <path d="M186.44,250.43c0-4.95,4.03-8.97,9-8.97h28.73l3.6-5.98h-33.53c-4.72,0-9.16,2.21-12,5.98-1.95,2.58-3,5.73-3,8.97,0,3.24,1.05,6.39,3,8.97,2.83,3.77,7.28,5.99,11.99,5.98h29.93l3.6-5.98h-32.33c-3.81,0-7.21-2.39-8.48-5.98-.34-.96-.51-1.97-.51-2.99h0s0,0,0,0Z"/>
      <path d="M393.42,244.45c0-4.95-4.03-8.97-9-8.97h-39.53l3.6,5.98h35.93c1.66,0,3,1.34,3,2.99s-1.34,2.99-3,2.99h-39.53v17.94h7.2v-11.96h26.61l6.93,11.96h7.8l-7.05-12.17c4.11-.9,7.04-4.55,7.05-8.76"/>
      <polygon points="438.57 235.48 421.48 248.59 404.39 235.48 393.84 235.48 417.22 253.42 417.22 265.38 425.37 265.38 425.37 253.42 448.75 235.48 438.57 235.48"/>
      <path d="M296.88,244.37c.04-1.62,1.37-2.92,2.99-2.92h34.74l3.6-5.98h-39.53c-4.97,0-9,4.02-9,8.97v20.93h44.93l3.6-5.98h-41.33v-5.98h30.53l3.6-5.98h-34.13v-3.06Z"/>
      <polygon points="275.77 235.48 275.77 247.44 241.64 247.44 241.64 235.48 234.44 235.48 234.44 265.38 241.64 265.38 241.64 253.42 275.77 253.42 275.77 265.38 282.97 265.38 282.97 235.48 275.77 235.48"/>
    </g>
    <path d="M140.31,236.79h0c-7.6-2.27-17.18-3.82-27.77-4.34-2.53-.12-5.05-.19-7.58-.19h-.62c-2.57,0-5.1.07-7.58.19-10.59.52-20.17,2.07-27.77,4.34-10.89,3.25-17.74,7.96-17.74,13.21,0,4.44,4.92,8.51,13.03,11.62,3.3,1.26,7.12,2.37,11.36,3.28,3.45.74,7.17,1.36,11.11,1.82,5.59.66,11.62,1.02,17.89,1.02s12.3-.36,17.89-1.02c3.73-.43,7.44-1.04,11.11-1.82,4.24-.91,8.07-2.02,11.36-3.28,8.12-3.11,13.03-7.18,13.03-11.62,0-5.25-6.85-9.96-17.74-13.21ZM73.42,255.02h0c-2.22,1.61-5.14,1.92-7.64.79-4.69-2.12-7.41-4.65-7.41-7.36,0-3.41,4.29-6.52,11.37-8.9,7.68-2.59,18.67-4.31,31.02-4.61h.49c.75-.03,1.49-.04,2.25-.04-.51.08-.99.21-1.45.38,0,0-.01,0-.02,0-.16.06-.31.12-.46.19,0,0-.01-.01-.02-.01-1.85.74-4.36,2.44-5.17,3l-.14.1-.13.09-19.75,14.26-2.93,2.12ZM123.33,260.86h0c-5.71.74-12.04,1.15-18.68,1.15s-12.97-.41-18.68-1.15c-5.22-.94-2.71-4.47-1.34-5.98.01-.02.03-.03.04-.04.33-.37.59-.61.63-.65,0,0,0,0,0,0,.89-.9,1.8-1.8,2.72-2.68,2.96-2.86,6.04-5.6,9.22-8.21.95-.78,1.9-1.54,2.84-2.28h0c.1-.09.2-.17.31-.24.73-.54,2.57-1.77,4.24-1.77,1.67,0,3.51,1.23,4.24,1.77.04.03.07.05.1.08l.08.06s.07.05.09.07l.03.03h.01c.96.76,1.91,1.52,2.85,2.29,3.18,2.61,6.25,5.35,9.21,8.21.92.88,1.83,1.78,2.73,2.69l.02.03c.08.08.31.3.6.61h0c1.36,1.49,3.99,5.09-1.29,6.04ZM143.52,255.82h0c-2.5,1.13-5.42.81-7.64-.79l-2.93-2.12-19.75-14.26-.07-.05-.06-.04-.14-.1c-.81-.56-3.32-2.26-5.17-3,0,0-.01,0-.02.01-.15-.07-.29-.13-.44-.18-.01,0-.02-.01-.04-.01-.47-.17-.96-.3-1.45-.38.75,0,1.5.01,2.24.03h.49c12.36.31,23.33,2.03,31.02,4.62h0c7.08,2.38,11.37,5.5,11.37,8.9,0,2.71-2.72,5.24-7.41,7.36Z"/>
  </g>
</svg>