<?xml version="1.0" encoding="UTF-8"?>
<svg id="Layer_1" xmlns="http://www.w3.org/2000/svg" width="176.4mm" height="176.4mm" version="1.1" viewBox="0 0 500 500">
  <!-- Generator: Adobe Illustrator 29.6.1, SVG Export Plug-In . SVG Version: 2.1.1 Build 9)  -->
  <defs>
    <style>
      .st0 {
        fill: none;
      }
    </style>
  </defs>
  <rect class="st0" y="0" width="500" height="500"/>
  <g>
    <polygon id="polygon854" points="152.8 457.3 162.3 457.3 162.3 422.9 186.3 422.9 186.3 414.9 128.8 414.9 128.8 422.9 152.8 422.9 152.8 457.3"/>
    <rect id="rect856" x="108.5" y="414.9" width="9.5" height="42.4"/>
    <path id="path858" d="M442.1,415.1h-34.6v42.3h9.5v-34.3h22.9c8.9,0,14.5,3.3,14.5,13.3v21.1h9.5v-22.2c0-11.3-6.5-20.1-21.7-20.1"/>
    <path id="path860" d="M373.7,409.8h13.9c1.6,0,3-1.4,3-3s-1.4-3.1-3-3.1h-13.9c-1.7,0-3.1,1.4-3.1,3.1s1.4,3,3.1,3"/>
    <path id="path862" d="M237.9,440.7c13.1-.3,17.4-3.8,17.4-12.7s-5.8-12.9-15.5-12.9h-42.6v42.3h9.4v-34.3h33.2c3.7,0,5.7,1.7,5.7,5.1s-.9,5.8-7,5.6h-23.9v2.4l29.1,21.1h13.7l-24.2-16.6h4.7,0Z"/>
    <path id="path864" d="M307.2,414.2c-2.9-.1-5.8-.2-8.7-.2-5,0-8.2.2-8.2.2h-.2c-6.9.2-12.7,2.5-16.9,6.6-4,3.9-6.3,9.4-6.3,15.4h0c0,12.9,9.3,21.8,23.3,22.1,2.9.1,5.8.2,8.7.2,5,0,8.2-.2,8.2-.2h.2c6.9-.2,12.7-2.5,16.9-6.6,4-3.9,6.3-9.4,6.3-15.4h0c0-12.7-9.3-21.5-23.3-22.1M320.4,436.1c0,8.2-5.3,13.5-13.9,13.8h-.4c-.5,0-2.5.2-6.8.2s-5.7,0-8.2-.2h-.2c-8.6-.2-14-5.5-14-13.8s5.3-13.5,13.9-13.9h.4s3.6-.2,8.5-.2,3.9,0,6.2.2h.4c8.8.4,14.1,5.6,14.1,13.8h0Z"/>
    <polygon id="polygon866" points="394.3 449.4 352.2 449.4 352.2 439.9 389.1 439.9 389.1 432.2 352.2 432.2 352.2 423.1 394.3 423.1 394.3 415.1 342.7 415.1 342.7 457.4 394.3 457.4 394.3 449.4"/>
    <path id="path868" d="M349.5,409.8h13.8c1.6,0,3-1.4,3-3s-1.4-3.1-3-3.1h-13.8c-1.7,0-3.1,1.4-3.1,3.1s1.4,3,3.1,3"/>
    <path id="path870" d="M59.1,415.2h-.1c-6.7.2-12.5,2.4-16.6,6.3-4,3.7-6.1,8.9-6.1,14.6h0c0,12.3,9.2,20.7,22.8,21,3.8.2,15.4.2,20.2.2s12.1,0,13.9,0v-8.1c-2.6,0-22.7,0-25.1,0s-5.6,0-8.1-.2c-8.4-.2-13.8-5.2-13.8-12.8s5.3-12.7,13.6-13h.4s3.5-.2,8.3-.2,22,0,24.8,0v-8c-1.9,0-4.8,0-8.6,0-10.6,0-25.2.2-25.4.2"/>
    <path id="path874" d="M250,41.5c-70.1,0-127.2,70.8-127.2,157.8s57,157.8,127.2,157.8,127.2-70.8,127.2-157.8-57-157.8-127.2-157.8ZM146.3,253.9v-.4c-4.3-13-5.6-24.4-5.6-24.6v-.2s.1,0,.1,0l109.2-80.8,109.3,80.9v.2c0,.1-1.3,11.5-5.5,24.6v.4c-.1,0-.4-.2-.4-.2h0s-103.4-76.7-103.4-76.7l-103.7,76.9h0ZM250,342.2c-36.4,0-70.5-22.6-91.6-60.5l-.3-.5,91.9-67.9,91.9,67.9-.2.4h0c-21.1,37.9-55.2,60.5-91.6,60.5h0ZM250,111.1l-112.2,83.2v-.6c1.1-36.9,13.3-71.4,34.3-97.2,21-25.8,48.7-40.1,77.9-40.1s56.8,14.2,77.9,40.1c21,25.8,33.1,60.3,34.3,97.2v.6s-.4-.3-.4-.3l-111.7-82.9Z"/>
  </g>
</svg>