<?xml version="1.0" encoding="UTF-8"?>
<svg xmlns="http://www.w3.org/2000/svg" viewBox="0 0 800 800" preserveAspectRatio="xMidYMid slice">
  <defs>
    <radialGradient id="bg" cx="50%" cy="40%" r="80%">
      <stop offset="0%" stop-color="#713f12"/>
      <stop offset="100%" stop-color="#3b1604"/>
    </radialGradient>
    <radialGradient id="spot" cx="50%" cy="35%" r="30%">
      <stop offset="0%" stop-color="rgba(255,255,255,0.18)"/>
      <stop offset="100%" stop-color="rgba(255,255,255,0)"/>
    </radialGradient>
    <linearGradient id="glassGradient" x1="0" y1="0" x2="1" y2="1">
      <stop offset="0%" stop-color="rgba(255,255,255,0.18)"/>
      <stop offset="100%" stop-color="rgba(255,255,255,0)"/>
    </linearGradient>
    <filter id="softShadow" x="-20%" y="-20%" width="140%" height="140%">
      <feGaussianBlur in="SourceAlpha" stdDeviation="6"/>
      <feOffset dx="0" dy="8"/>
      <feComponentTransfer><feFuncA type="linear" slope="0.5"/></feComponentTransfer>
      <feMerge>
        <feMergeNode/>
        <feMergeNode in="SourceGraphic"/>
      </feMerge>
    </filter>
  </defs>

  <!-- Background -->
  <rect width="800" height="800" fill="url(#bg)"/>
  <rect width="800" height="800" fill="url(#spot)"/>

  <!-- Floor shadow under product -->
  <ellipse cx="400" cy="680" rx="160" ry="20" fill="rgba(0,0,0,0.5)" opacity="0.6"/>

  <!-- Product silhouette -->
  <g filter="url(#softShadow)">
    
    <!-- Trigger -->
    <path d="M 360 200 L 360 250 L 320 280 L 320 260 L 350 240 L 350 200 Z" fill="#1a1a22"/>
    <!-- Top neck -->
    <rect x="360" y="180" width="80" height="50" rx="4" fill="#2a2a32"/>
    <!-- Bottle body -->
    <path d="M 280 230 L 500 230 L 510 620 Q 510 640 490 640 L 290 640 Q 270 640 270 620 Z"
          fill="#a16207" stroke="rgba(0,0,0,0.3)" stroke-width="2"/>
    <!-- Body highlight -->
    <ellipse cx="300" cy="430" rx="15" ry="180" fill="rgba(255,255,255,0.25)"/>
    <!-- Top color band -->
    <rect x="280" y="260" width="220" height="30" fill="rgba(0,0,0,0.35)"/>
    <!-- Label -->
    <rect x="310" y="340" width="160" height="200" rx="6" fill="rgba(255,255,255,0.94)" stroke="rgba(0,0,0,0.1)"/>
    <!-- Label content -->
    <rect x="335" y="365" width="110" height="18" fill="#0a0a12" rx="2"/>
    <rect x="335" y="395" width="80" height="10" fill="rgba(10,10,18,0.6)"/>
    <rect x="335" y="412" width="100" height="6" fill="rgba(10,10,18,0.4)"/>
    <rect x="335" y="425" width="90" height="6" fill="rgba(10,10,18,0.4)"/>
    <rect x="335" y="438" width="95" height="6" fill="rgba(10,10,18,0.4)"/>
    <!-- Warning/Volume circle -->
    <circle cx="395" cy="510" r="22" fill="#a16207" stroke="rgba(0,0,0,0.2)"/>
    <text x="395" y="517" font-family="Inter, sans-serif" font-size="13" font-weight="800" fill="white" text-anchor="middle">PRO</text>
  
  </g>

  <!-- Bottom brand mark -->
  <text x="400" y="755" font-family="-apple-system, Inter, sans-serif" font-size="11" text-anchor="middle" fill="rgba(255,255,255,0.4)" font-weight="700" letter-spacing="4">CARMAT</text>
</svg>