<?xml version="1.0" encoding="UTF-8"?>
<svg xmlns="http://www.w3.org/2000/svg" viewBox="0 0 800 800" preserveAspectRatio="xMidYMid slice">
  <defs>
    <radialGradient id="bg" cx="50%" cy="40%" r="80%">
      <stop offset="0%" stop-color="#1e293b"/>
      <stop offset="100%" stop-color="#0a0a0f"/>
    </radialGradient>
    <radialGradient id="spot" cx="50%" cy="35%" r="30%">
      <stop offset="0%" stop-color="rgba(255,255,255,0.18)"/>
      <stop offset="100%" stop-color="rgba(255,255,255,0)"/>
    </radialGradient>
    <linearGradient id="glassGradient" x1="0" y1="0" x2="1" y2="1">
      <stop offset="0%" stop-color="rgba(255,255,255,0.18)"/>
      <stop offset="100%" stop-color="rgba(255,255,255,0)"/>
    </linearGradient>
    <filter id="softShadow" x="-20%" y="-20%" width="140%" height="140%">
      <feGaussianBlur in="SourceAlpha" stdDeviation="6"/>
      <feOffset dx="0" dy="8"/>
      <feComponentTransfer><feFuncA type="linear" slope="0.5"/></feComponentTransfer>
      <feMerge>
        <feMergeNode/>
        <feMergeNode in="SourceGraphic"/>
      </feMerge>
    </filter>
  </defs>

  <!-- Background -->
  <rect width="800" height="800" fill="url(#bg)"/>
  <rect width="800" height="800" fill="url(#spot)"/>

  <!-- Floor shadow under product -->
  <ellipse cx="400" cy="680" rx="160" ry="20" fill="rgba(0,0,0,0.5)" opacity="0.6"/>

  <!-- Product silhouette -->
  <g filter="url(#softShadow)">
    
    <!-- Handle -->
    <path d="M 350 240 Q 350 200 400 200 Q 450 200 450 240"
          fill="none" stroke="#1a1a22" stroke-width="8" stroke-linecap="round"/>
    <!-- Bag body -->
    <path d="M 240 260 L 560 260 L 580 620 L 220 620 Z"
          fill="#1e293b" stroke="rgba(0,0,0,0.3)" stroke-width="3"/>
    <!-- Top edge highlight -->
    <line x1="240" y1="260" x2="560" y2="260" stroke="rgba(255,255,255,0.4)" stroke-width="2"/>
    <!-- Divider lines (compartments) -->
    <line x1="333" y1="280" x2="343" y2="600" stroke="rgba(0,0,0,0.3)" stroke-width="2"/>
    <line x1="466" y1="280" x2="456" y2="600" stroke="rgba(0,0,0,0.3)" stroke-width="2"/>
    <!-- Pocket fronts -->
    <rect x="260" y="380" width="80" height="100" fill="rgba(0,0,0,0.15)" stroke="rgba(255,255,255,0.1)"/>
    <rect x="360" y="380" width="80" height="100" fill="rgba(0,0,0,0.1)" stroke="rgba(255,255,255,0.1)"/>
    <rect x="460" y="380" width="80" height="100" fill="rgba(0,0,0,0.15)" stroke="rgba(255,255,255,0.1)"/>
    <!-- Zippers (compartment) -->
    <line x1="270" y1="410" x2="330" y2="410" stroke="rgba(255,255,255,0.5)" stroke-width="1" stroke-dasharray="3,2"/>
    <line x1="370" y1="410" x2="430" y2="410" stroke="rgba(255,255,255,0.5)" stroke-width="1" stroke-dasharray="3,2"/>
    <line x1="470" y1="410" x2="530" y2="410" stroke="rgba(255,255,255,0.5)" stroke-width="1" stroke-dasharray="3,2"/>
  
  </g>

  <!-- Bottom brand mark -->
  <text x="400" y="755" font-family="-apple-system, Inter, sans-serif" font-size="11" text-anchor="middle" fill="rgba(255,255,255,0.4)" font-weight="700" letter-spacing="4">CARMAT</text>
</svg>